<?xml version="1.0" standalone="no"?>
<!DOCTYPE svg PUBLIC "-//W3C//DTD SVG 20010904//EN"
 "http://www.w3.org/TR/2001/REC-SVG-20010904/DTD/svg10.dtd">
<svg version="1.0" xmlns="http://www.w3.org/2000/svg"
 width="1298.000000pt" height="374.000000pt" viewBox="0 0 1298.000000 374.000000"
 preserveAspectRatio="xMidYMid meet">

<g transform="translate(0.000000,374.000000) scale(0.100000,-0.100000)"
fill="#000000" stroke="none">
<path d="M2210 3113 c-534 -57 -989 -418 -1169 -926 -56 -161 -74 -272 -74
-462 0 -190 18 -301 74 -462 164 -465 563 -811 1041 -904 207 -40 415 -35 619
16 557 139 973 618 1039 1194 16 136 10 316 -10 316 -12 0 -18 -24 -27 -105
-29 -246 -127 -464 -285 -636 -22 -24 -44 -44 -49 -44 -5 0 -9 46 -9 102 0
120 -21 177 -76 210 -33 20 -34 21 -34 89 0 65 2 70 25 81 32 14 65 67 65 102
l0 27 -34 -35 c-39 -42 -68 -45 -101 -11 -34 33 -32 70 6 106 l31 29 -32 0
c-47 0 -100 -55 -100 -104 0 -49 24 -92 60 -111 29 -15 30 -18 30 -83 -1 -64
-2 -68 -33 -87 -43 -27 -77 -81 -77 -121 0 -24 -5 -34 -15 -34 -12 0 -15 14
-15 70 l0 70 -34 0 c-34 0 -35 1 -38 43 l-3 42 -52 3 -51 3 -4 101 -3 100 -60
56 c-65 61 -194 149 -232 158 -23 6 -24 8 -21 108 l3 101 40 5 c74 11 120 58
135 143 6 28 4 37 -6 37 -8 0 -14 -8 -14 -18 0 -10 -12 -29 -26 -43 -36 -34
-112 -34 -148 0 -53 50 -42 133 23 173 l36 23 -33 3 c-44 4 -105 -32 -131 -78
-40 -72 -16 -178 49 -217 l30 -17 0 -107 c0 -104 -1 -107 -23 -113 -39 -9
-168 -99 -234 -162 l-63 -60 0 -97 0 -97 -55 0 -55 0 0 -44 c0 -43 -1 -45 -32
-48 -33 -3 -33 -4 -38 -63 -6 -74 -30 -84 -42 -17 -9 51 -39 97 -79 117 -27
15 -29 19 -29 74 0 59 0 60 34 71 41 13 64 37 76 81 11 37 -3 65 -15 30 -3
-12 -20 -28 -37 -37 -37 -19 -68 -9 -94 31 -14 21 -14 30 -4 55 7 16 21 32 31
35 10 4 19 13 19 21 0 11 -7 13 -27 8 -74 -17 -114 -79 -94 -145 6 -21 22 -46
35 -56 18 -14 24 -32 29 -81 l7 -62 -38 -25 c-65 -43 -82 -86 -82 -204 0 -57
-4 -101 -9 -101 -19 0 -130 155 -179 249 -101 193 -138 366 -129 590 13 307
127 562 349 781 168 165 426 292 640 316 72 8 94 19 77 40 -11 14 -153 17
-249 7z m-150 -96 c-366 -165 -620 -487 -695 -879 -18 -96 -21 -312 -6 -408
33 -202 116 -393 242 -556 63 -82 191 -200 282 -258 214 -139 407 -197 662
-198 338 -1 623 117 861 356 109 110 164 184 232 316 38 74 43 80 37 45 -10
-61 -70 -236 -106 -307 -194 -387 -557 -658 -983 -735 -125 -23 -343 -22 -466
2 -286 54 -502 168 -711 375 -270 266 -402 581 -402 955 0 312 97 595 286 832
191 241 439 403 731 479 133 34 143 29 36 -19z m559 -1177 c74 -40 199 -145
212 -177 5 -15 9 -58 7 -97 l-3 -71 -297 -3 -298 -2 0 87 0 86 44 43 c93 89
210 164 254 164 14 0 50 -14 81 -30z m331 -435 c0 -45 0 -45 35 -45 l35 0 0
-253 0 -253 -74 -26 c-41 -15 -77 -24 -80 -21 -3 4 -6 21 -6 39 0 47 -45 94
-149 157 -47 29 -103 69 -124 90 l-38 38 -42 -38 c-23 -21 -71 -56 -107 -78
-130 -77 -170 -121 -170 -184 l0 -30 -67 24 c-38 12 -76 26 -85 30 -17 7 -18
28 -18 256 l0 249 35 0 c35 0 35 0 35 45 l0 45 410 0 410 0 0 -45z m-1062 -11
c28 -19 52 -65 52 -99 l0 -26 -92 3 -93 3 2 34 c1 23 12 44 34 67 36 37 63 42
97 18z m1391 -35 c17 -17 31 -36 31 -42 0 -7 3 -22 6 -34 6 -23 5 -23 -90 -23
-90 0 -96 1 -96 20 0 29 26 76 52 94 34 24 63 19 97 -15z m-1269 -294 c0 -117
-3 -165 -11 -165 -19 0 -108 58 -181 117 l-68 54 0 79 0 80 130 0 130 0 0
-165z m1310 61 l0 -83 -60 -44 c-69 -50 -180 -119 -192 -119 -4 0 -8 74 -8
165 l0 165 130 0 130 0 0 -84z m-626 -161 c27 -16 66 -45 88 -65 30 -30 38
-44 38 -73 0 -33 -3 -37 -37 -47 -95 -28 -452 -21 -503 10 -17 11 -7 76 17
102 10 11 55 43 99 70 45 27 97 62 115 78 l33 27 51 -37 c27 -21 72 -50 99
-65z"/>
<path d="M2220 1410 c0 -6 117 -10 330 -10 213 0 330 4 330 10 0 6 -117 10
-330 10 -213 0 -330 -4 -330 -10z"/>
<path d="M2177 1280 c-4 -18 -13 -30 -22 -30 -10 0 -15 -7 -13 -17 6 -31 118
-30 118 2 0 7 -9 17 -20 20 -11 3 -23 17 -26 31 -9 33 -30 30 -37 -6z"/>
<path d="M2417 1303 c-4 -3 -7 -15 -7 -26 0 -10 -9 -21 -20 -24 -11 -3 -20
-14 -20 -24 0 -16 8 -19 50 -19 59 0 73 17 41 49 -12 12 -21 28 -21 36 0 16
-12 20 -23 8z"/>
<path d="M2640 1295 c0 -9 -12 -27 -27 -41 -35 -32 -21 -46 43 -42 37 2 50 7
52 21 2 10 -3 17 -13 17 -9 0 -18 12 -21 30 -7 31 -34 43 -34 15z"/>
<path d="M2865 1288 c-4 -13 -17 -31 -29 -40 -31 -25 -9 -40 50 -36 35 2 50 7
52 19 2 10 -5 19 -17 22 -10 2 -21 15 -23 28 -4 31 -25 35 -33 7z"/>
<path d="M1836 1129 c-34 -40 -21 -59 39 -59 80 0 92 16 48 62 -34 36 -55 35
-87 -3z"/>
<path d="M3146 1121 c-16 -16 -25 -34 -22 -40 10 -16 136 -14 136 1 0 18 -51
68 -70 68 -9 0 -29 -13 -44 -29z"/>
<path d="M6990 1985 l0 -625 110 0 110 0 0 625 0 625 -110 0 -110 0 0 -625z"/>
<path d="M11270 1985 l0 -625 104 0 104 0 4 233 c3 219 4 234 25 267 46 74
152 102 222 59 81 -49 91 -90 91 -359 l0 -200 106 0 106 0 -4 253 c-4 281 -9
303 -78 395 -104 138 -315 191 -426 107 -18 -14 -35 -25 -38 -25 -3 0 -6 117
-6 260 l0 260 -105 0 -105 0 0 -625z"/>
<path d="M4342 1968 l3 -603 255 0 c218 0 264 3 314 18 263 81 438 295 453
552 12 215 -87 410 -273 534 -130 87 -165 94 -482 99 l-272 3 2 -603z m570
350 c143 -66 230 -200 229 -353 0 -118 -54 -225 -149 -298 -75 -56 -146 -77
-294 -84 l-128 -6 0 387 0 388 143 -4 c127 -4 148 -7 199 -30z"/>
<path d="M8425 1974 c-126 -328 -232 -600 -233 -606 -2 -5 48 -7 119 -6 l123
3 61 160 62 160 203 0 203 0 61 -160 61 -160 124 -3 c69 -1 121 1 119 6 -1 5
-106 278 -233 606 l-230 596 -105 0 -105 0 -230 -596z m390 94 c28 -73 51
-138 53 -145 3 -10 -22 -13 -108 -13 -86 0 -111 3 -108 13 8 32 104 277 108
277 3 0 28 -60 55 -132z"/>
<path d="M6585 2480 c-94 -46 -102 -159 -16 -217 61 -41 143 -23 181 40 40 64
14 147 -54 178 -52 24 -62 23 -111 -1z"/>
<path d="M5810 2149 c-115 -22 -217 -101 -276 -211 -39 -72 -39 -74 -39 -183
0 -98 3 -116 27 -167 73 -156 226 -246 400 -236 68 4 85 9 123 36 l44 31 3
-27 3 -27 103 -3 102 -3 0 391 0 390 -105 0 -105 0 0 -30 0 -30 -46 30 c-45
28 -123 51 -167 49 -12 -1 -42 -5 -67 -10z m133 -200 c82 -22 147 -110 147
-199 0 -157 -171 -254 -302 -171 -50 32 -98 112 -98 165 0 86 59 173 133 199
52 19 71 20 120 6z"/>
<path d="M10600 2147 c-204 -47 -345 -252 -312 -454 32 -194 183 -331 378
-341 89 -5 132 5 189 43 l35 24 0 -30 0 -30 103 3 102 3 3 388 2 387 -105 0
-105 0 0 -31 c0 -31 0 -31 -22 -15 -75 55 -174 74 -268 53z m145 -198 c53 -15
120 -85 136 -141 35 -130 -58 -258 -188 -258 -188 0 -273 222 -135 353 30 29
91 56 127 57 11 0 38 -5 60 -11z"/>
<path d="M6530 1750 l0 -390 110 0 110 0 0 390 0 390 -110 0 -110 0 0 -390z"/>
<path d="M7373 2128 c3 -7 73 -183 156 -390 l151 -377 -90 -218 c-50 -119 -90
-221 -90 -225 0 -4 49 -8 108 -8 l108 0 243 602 c134 331 245 608 248 615 4
10 -19 13 -108 13 l-114 0 -95 -235 c-52 -129 -97 -235 -100 -235 -4 0 -49
106 -100 235 l-94 235 -114 0 c-87 0 -113 -3 -109 -12z"/>
<path d="M9413 2128 c3 -7 73 -183 156 -390 l151 -377 -90 -218 c-50 -119 -90
-221 -90 -225 0 -4 49 -8 108 -8 l108 0 243 603 c134 331 246 608 248 615 4 9
-22 12 -108 12 l-114 0 -95 -235 c-52 -129 -97 -235 -100 -235 -4 0 -49 106
-100 235 l-94 235 -114 0 c-87 0 -113 -3 -109 -12z"/>
</g>
</svg>
